<?xml version="1.0" encoding="UTF-8" standalone="no"?>
<!-- Created with Inkscape (http://www.inkscape.org/) -->
<svg
   xmlns:svg="http://www.w3.org/2000/svg"
   xmlns="http://www.w3.org/2000/svg"
   version="1.0"
   width="420"
   height="249.99997"
   id="svg2">
  <defs
     id="defs4" />
  <g
     transform="translate(-164.11612,-405.65219)"
     id="layer1">
    <rect
       width="420"
       height="125"
       x="164.11612"
       y="405.65219"
       id="rect3318"
       style="fill:#ffffff;fill-opacity:1;fill-rule:nonzero;stroke:none;stroke-width:3;stroke-linecap:butt;stroke-linejoin:miter;stroke-miterlimit:4;stroke-dasharray:none;stroke-dashoffset:0;stroke-opacity:1" />
    <rect
       width="420"
       height="125"
       x="164.11612"
       y="530.65216"
       id="rect3279"
       style="fill:#8abad8;fill-opacity:1;fill-rule:nonzero;stroke:none;stroke-width:3;stroke-linecap:butt;stroke-linejoin:miter;stroke-miterlimit:4;stroke-dasharray:none;stroke-dashoffset:0;stroke-opacity:1" />
    <g
       transform="translate(0,-1)"
       id="g3307">
      <path
         d="M 164.11612,624.15219 C 164.11612,624.15219 174.3727,629.15219 179.11612,629.15219 C 183.85954,629.15219 189.3727,624.15219 194.11612,624.15219 C 198.85954,624.15219 204.3727,629.15219 209.11612,629.15219 C 213.85954,629.15219 219.3727,624.15219 224.11612,624.15219 C 228.85954,624.15219 234.3727,629.15219 239.11612,629.15219 C 243.85954,629.15219 249.3727,624.15219 254.11612,624.15219 C 258.85954,624.15219 264.3727,629.15219 269.11612,629.15219 C 273.85954,629.15219 279.3727,624.15219 284.11612,624.15219 C 288.85954,624.15219 294.3727,629.15219 299.11612,629.15219 C 303.85954,629.15219 309.3727,624.15219 314.11612,624.15219 C 318.85954,624.15219 324.3727,629.15219 329.11612,629.15219 C 333.85954,629.15219 339.3727,624.15219 344.11612,624.15219 C 348.85954,624.15219 354.3727,629.15219 359.11612,629.15219 C 363.85954,629.15219 369.3727,624.15219 374.11612,624.15219 C 378.85954,624.15219 384.3727,629.15219 389.11612,629.15219 C 393.85954,629.15219 399.3727,624.15219 404.11612,624.15219 C 408.85954,624.15219 414.3727,629.15219 419.11612,629.15219 C 423.85954,629.15219 429.3727,624.15219 434.11612,624.15219 C 438.85954,624.15219 444.3727,629.15219 449.11612,629.15219 C 453.85954,629.15219 459.3727,624.15219 464.11612,624.15219 C 468.85954,624.15219 474.3727,629.15219 479.11612,629.15219 C 483.85954,629.15219 489.3727,624.15219 494.11612,624.15219 C 498.85954,624.15219 504.3727,629.15219 509.11612,629.15219 C 513.85954,629.15219 519.3727,624.15219 524.11612,624.15219 C 528.85954,624.15219 534.3727,629.15219 539.11612,629.15219 C 543.85954,629.15219 549.3727,624.15219 554.11612,624.15219 C 558.85954,624.15219 564.3727,629.15219 569.11612,629.15219 C 573.85954,629.15219 584.11612,624.15219 584.11612,624.15219"
         id="path3281"
         style="opacity:1;fill:none;fill-opacity:1;fill-rule:nonzero;stroke:#9ed3d2;stroke-width:5;stroke-linecap:square;stroke-linejoin:miter;stroke-miterlimit:4;stroke-dasharray:none;stroke-dashoffset:0;stroke-opacity:1" />
      <path
         d="M 164.11612,629.15219 C 164.11612,629.15219 174.3727,634.15219 179.11612,634.15219 C 183.85954,634.15219 189.3727,629.15219 194.11612,629.15219 C 198.85954,629.15219 204.3727,634.15219 209.11612,634.15219 C 213.85954,634.15219 219.3727,629.15219 224.11612,629.15219 C 228.85954,629.15219 234.3727,634.15219 239.11612,634.15219 C 243.85954,634.15219 249.3727,629.15219 254.11612,629.15219 C 258.85954,629.15219 264.3727,634.15219 269.11612,634.15219 C 273.85954,634.15219 279.3727,629.15219 284.11612,629.15219 C 288.85954,629.15219 294.3727,634.15219 299.11612,634.15219 C 303.85954,634.15219 309.3727,629.15219 314.11612,629.15219 C 318.85954,629.15219 324.3727,634.15219 329.11612,634.15219 C 333.85954,634.15219 339.3727,629.15219 344.11612,629.15219 C 348.85954,629.15219 354.3727,634.15219 359.11612,634.15219 C 363.85954,634.15219 369.3727,629.15219 374.11612,629.15219 C 378.85954,629.15219 384.3727,634.15219 389.11612,634.15219 C 393.85954,634.15219 399.3727,629.15219 404.11612,629.15219 C 408.85954,629.15219 414.3727,634.15219 419.11612,634.15219 C 423.85954,634.15219 429.3727,629.15219 434.11612,629.15219 C 438.85954,629.15219 444.3727,634.15219 449.11612,634.15219 C 453.85954,634.15219 459.3727,629.15219 464.11612,629.15219 C 468.85954,629.15219 474.3727,634.15219 479.11612,634.15219 C 483.85954,634.15219 489.3727,629.15219 494.11612,629.15219 C 498.85954,629.15219 504.3727,634.15219 509.11612,634.15219 C 513.85954,634.15219 519.3727,629.15219 524.11612,629.15219 C 528.85954,629.15219 534.3727,634.15219 539.11612,634.15219 C 543.85954,634.15219 549.3727,629.15219 554.11612,629.15219 C 558.85954,629.15219 564.3727,634.15219 569.11612,634.15219 C 573.85954,634.15219 584.11612,629.15219 584.11612,629.15219"
         id="path3295"
         style="opacity:1;fill:none;fill-opacity:1;fill-rule:nonzero;stroke:#7dc4c5;stroke-width:5;stroke-linecap:square;stroke-linejoin:miter;stroke-miterlimit:4;stroke-dasharray:none;stroke-dashoffset:0;stroke-opacity:1" />
      <path
         d="M 164.11612,634.15219 C 164.11612,634.15219 174.3727,639.15219 179.11612,639.15219 C 183.85954,639.15219 189.3727,634.15219 194.11612,634.15219 C 198.85954,634.15219 204.3727,639.15219 209.11612,639.15219 C 213.85954,639.15219 219.3727,634.15219 224.11612,634.15219 C 228.85954,634.15219 234.3727,639.15219 239.11612,639.15219 C 243.85954,639.15219 249.3727,634.15219 254.11612,634.15219 C 258.85954,634.15219 264.3727,639.15219 269.11612,639.15219 C 273.85954,639.15219 279.3727,634.15219 284.11612,634.15219 C 288.85954,634.15219 294.3727,639.15219 299.11612,639.15219 C 303.85954,639.15219 309.3727,634.15219 314.11612,634.15219 C 318.85954,634.15219 324.3727,639.15219 329.11612,639.15219 C 333.85954,639.15219 339.3727,634.15219 344.11612,634.15219 C 348.85954,634.15219 354.3727,639.15219 359.11612,639.15219 C 363.85954,639.15219 369.3727,634.15219 374.11612,634.15219 C 378.85954,634.15219 384.3727,639.15219 389.11612,639.15219 C 393.85954,639.15219 399.3727,634.15219 404.11612,634.15219 C 408.85954,634.15219 414.3727,639.15219 419.11612,639.15219 C 423.85954,639.15219 429.3727,634.15219 434.11612,634.15219 C 438.85954,634.15219 444.3727,639.15219 449.11612,639.15219 C 453.85954,639.15219 459.3727,634.15219 464.11612,634.15219 C 468.85954,634.15219 474.3727,639.15219 479.11612,639.15219 C 483.85954,639.15219 489.3727,634.15219 494.11612,634.15219 C 498.85954,634.15219 504.3727,639.15219 509.11612,639.15219 C 513.85954,639.15219 519.3727,634.15219 524.11612,634.15219 C 528.85954,634.15219 534.3727,639.15219 539.11612,639.15219 C 543.85954,639.15219 549.3727,634.15219 554.11612,634.15219 C 558.85954,634.15219 564.3727,639.15219 569.11612,639.15219 C 573.85954,639.15219 584.11612,634.15219 584.11612,634.15219"
         id="path3297"
         style="opacity:1;fill:none;fill-opacity:1;fill-rule:nonzero;stroke:#9ed3d2;stroke-width:5;stroke-linecap:square;stroke-linejoin:miter;stroke-miterlimit:4;stroke-dasharray:none;stroke-dashoffset:0;stroke-opacity:1" />
      <path
         d="M 164.11612,639.15219 C 164.11612,639.15219 174.3727,644.15219 179.11612,644.15219 C 183.85954,644.15219 189.3727,639.15219 194.11612,639.15219 C 198.85954,639.15219 204.3727,644.15219 209.11612,644.15219 C 213.85954,644.15219 219.3727,639.15219 224.11612,639.15219 C 228.85954,639.15219 234.3727,644.15219 239.11612,644.15219 C 243.85954,644.15219 249.3727,639.15219 254.11612,639.15219 C 258.85954,639.15219 264.3727,644.15219 269.11612,644.15219 C 273.85954,644.15219 279.3727,639.15219 284.11612,639.15219 C 288.85954,639.15219 294.3727,644.15219 299.11612,644.15219 C 303.85954,644.15219 309.3727,639.15219 314.11612,639.15219 C 318.85954,639.15219 324.3727,644.15219 329.11612,644.15219 C 333.85954,644.15219 339.3727,639.15219 344.11612,639.15219 C 348.85954,639.15219 354.3727,644.15219 359.11612,644.15219 C 363.85954,644.15219 369.3727,639.15219 374.11612,639.15219 C 378.85954,639.15219 384.3727,644.15219 389.11612,644.15219 C 393.85954,644.15219 399.3727,639.15219 404.11612,639.15219 C 408.85954,639.15219 414.3727,644.15219 419.11612,644.15219 C 423.85954,644.15219 429.3727,639.15219 434.11612,639.15219 C 438.85954,639.15219 444.3727,644.15219 449.11612,644.15219 C 453.85954,644.15219 459.3727,639.15219 464.11612,639.15219 C 468.85954,639.15219 474.3727,644.15219 479.11612,644.15219 C 483.85954,644.15219 489.3727,639.15219 494.11612,639.15219 C 498.85954,639.15219 504.3727,644.15219 509.11612,644.15219 C 513.85954,644.15219 519.3727,639.15219 524.11612,639.15219 C 528.85954,639.15219 534.3727,644.15219 539.11612,644.15219 C 543.85954,644.15219 549.3727,639.15219 554.11612,639.15219 C 558.85954,639.15219 564.3727,644.15219 569.11612,644.15219 C 573.85954,644.15219 584.11612,639.15219 584.11612,639.15219"
         id="path3299"
         style="opacity:1;fill:none;fill-opacity:1;fill-rule:nonzero;stroke:#7dc4c5;stroke-width:5;stroke-linecap:square;stroke-linejoin:miter;stroke-miterlimit:4;stroke-dasharray:none;stroke-dashoffset:0;stroke-opacity:1" />
      <path
         d="M 164.11612,644.15219 C 164.11612,644.15219 174.3727,649.15219 179.11612,649.15219 C 183.85954,649.15219 189.3727,644.15219 194.11612,644.15219 C 198.85954,644.15219 204.3727,649.15219 209.11612,649.15219 C 213.85954,649.15219 219.3727,644.15219 224.11612,644.15219 C 228.85954,644.15219 234.3727,649.15219 239.11612,649.15219 C 243.85954,649.15219 249.3727,644.15219 254.11612,644.15219 C 258.85954,644.15219 264.3727,649.15219 269.11612,649.15219 C 273.85954,649.15219 279.3727,644.15219 284.11612,644.15219 C 288.85954,644.15219 294.3727,649.15219 299.11612,649.15219 C 303.85954,649.15219 309.3727,644.15219 314.11612,644.15219 C 318.85954,644.15219 324.3727,649.15219 329.11612,649.15219 C 333.85954,649.15219 339.3727,644.15219 344.11612,644.15219 C 348.85954,644.15219 354.3727,649.15219 359.11612,649.15219 C 363.85954,649.15219 369.3727,644.15219 374.11612,644.15219 C 378.85954,644.15219 384.3727,649.15219 389.11612,649.15219 C 393.85954,649.15219 399.3727,644.15219 404.11612,644.15219 C 408.85954,644.15219 414.3727,649.15219 419.11612,649.15219 C 423.85954,649.15219 429.3727,644.15219 434.11612,644.15219 C 438.85954,644.15219 444.3727,649.15219 449.11612,649.15219 C 453.85954,649.15219 459.3727,644.15219 464.11612,644.15219 C 468.85954,644.15219 474.3727,649.15219 479.11612,649.15219 C 483.85954,649.15219 489.3727,644.15219 494.11612,644.15219 C 498.85954,644.15219 504.3727,649.15219 509.11612,649.15219 C 513.85954,649.15219 519.3727,644.15219 524.11612,644.15219 C 528.85954,644.15219 534.3727,649.15219 539.11612,649.15219 C 543.85954,649.15219 549.3727,644.15219 554.11612,644.15219 C 558.85954,644.15219 564.3727,649.15219 569.11612,649.15219 C 573.85954,649.15219 584.11612,644.15219 584.11612,644.15219"
         id="path3301"
         style="opacity:1;fill:none;fill-opacity:1;fill-rule:nonzero;stroke:#9ed3d2;stroke-width:5;stroke-linecap:square;stroke-linejoin:miter;stroke-miterlimit:4;stroke-dasharray:none;stroke-dashoffset:0;stroke-opacity:1" />
      <path
         d="M 164.11612,649.15219 C 164.11612,649.15219 174.3727,654.15219 179.11612,654.15219 C 183.85954,654.15219 189.3727,649.15219 194.11612,649.15219 C 198.85954,649.15219 204.3727,654.15219 209.11612,654.15219 C 213.85954,654.15219 219.3727,649.15219 224.11612,649.15219 C 228.85954,649.15219 234.3727,654.15219 239.11612,654.15219 C 243.85954,654.15219 249.3727,649.15219 254.11612,649.15219 C 258.85954,649.15219 264.3727,654.15219 269.11612,654.15219 C 273.85954,654.15219 279.3727,649.15219 284.11612,649.15219 C 288.85954,649.15219 294.3727,654.15219 299.11612,654.15219 C 303.85954,654.15219 309.3727,649.15219 314.11612,649.15219 C 318.85954,649.15219 324.3727,654.15219 329.11612,654.15219 C 333.85954,654.15219 339.3727,649.15219 344.11612,649.15219 C 348.85954,649.15219 354.3727,654.15219 359.11612,654.15219 C 363.85954,654.15219 369.3727,649.15219 374.11612,649.15219 C 378.85954,649.15219 384.3727,654.15219 389.11612,654.15219 C 393.85954,654.15219 399.3727,649.15219 404.11612,649.15219 C 408.85954,649.15219 414.3727,654.15219 419.11612,654.15219 C 423.85954,654.15219 429.3727,649.15219 434.11612,649.15219 C 438.85954,649.15219 444.3727,654.15219 449.11612,654.15219 C 453.85954,654.15219 459.3727,649.15219 464.11612,649.15219 C 468.85954,649.15219 474.3727,654.15219 479.11612,654.15219 C 483.85954,654.15219 489.3727,649.15219 494.11612,649.15219 C 498.85954,649.15219 504.3727,654.15219 509.11612,654.15219 C 513.85954,654.15219 519.3727,649.15219 524.11612,649.15219 C 528.85954,649.15219 534.3727,654.15219 539.11612,654.15219 C 543.85954,654.15219 549.3727,649.15219 554.11612,649.15219 C 558.85954,649.15219 564.3727,654.15219 569.11612,654.15219 C 573.85954,654.15219 584.11612,649.15219 584.11612,649.15219"
         id="path3303"
         style="opacity:1;fill:none;fill-opacity:1;fill-rule:nonzero;stroke:#7dc4c5;stroke-width:5;stroke-linecap:square;stroke-linejoin:miter;stroke-miterlimit:4;stroke-dasharray:none;stroke-dashoffset:0;stroke-opacity:1" />
      <path
         d="M 164.11612,654.15219 C 164.11612,654.15219 174.3727,659.15219 179.11612,659.15219 C 183.85954,659.15219 189.3727,654.15219 194.11612,654.15219 C 198.85954,654.15219 204.3727,659.15219 209.11612,659.15219 C 213.85954,659.15219 219.3727,654.15219 224.11612,654.15219 C 228.85954,654.15219 234.3727,659.15219 239.11612,659.15219 C 243.85954,659.15219 249.3727,654.15219 254.11612,654.15219 C 258.85954,654.15219 264.3727,659.15219 269.11612,659.15219 C 273.85954,659.15219 279.3727,654.15219 284.11612,654.15219 C 288.85954,654.15219 294.3727,659.15219 299.11612,659.15219 C 303.85954,659.15219 309.3727,654.15219 314.11612,654.15219 C 318.85954,654.15219 324.3727,659.15219 329.11612,659.15219 C 333.85954,659.15219 339.3727,654.15219 344.11612,654.15219 C 348.85954,654.15219 354.3727,659.15219 359.11612,659.15219 C 363.85954,659.15219 369.3727,654.15219 374.11612,654.15219 C 378.85954,654.15219 384.3727,659.15219 389.11612,659.15219 C 393.85954,659.15219 399.3727,654.15219 404.11612,654.15219 C 408.85954,654.15219 414.3727,659.15219 419.11612,659.15219 C 423.85954,659.15219 429.3727,654.15219 434.11612,654.15219 C 438.85954,654.15219 444.3727,659.15219 449.11612,659.15219 C 453.85954,659.15219 459.3727,654.15219 464.11612,654.15219 C 468.85954,654.15219 474.3727,659.15219 479.11612,659.15219 C 483.85954,659.15219 489.3727,654.15219 494.11612,654.15219 C 498.85954,654.15219 504.3727,659.15219 509.11612,659.15219 C 513.85954,659.15219 519.3727,654.15219 524.11612,654.15219 C 528.85954,654.15219 534.3727,659.15219 539.11612,659.15219 C 543.85954,659.15219 549.3727,654.15219 554.11612,654.15219 C 558.85954,654.15219 564.3727,659.15219 569.11612,659.15219 C 573.85954,659.15219 584.11612,654.15219 584.11612,654.15219"
         id="path3305"
         style="opacity:1;fill:none;fill-opacity:1;fill-rule:nonzero;stroke:#9ed3d2;stroke-width:5;stroke-linecap:square;stroke-linejoin:miter;stroke-miterlimit:4;stroke-dasharray:none;stroke-dashoffset:0;stroke-opacity:1" />
      <path
         d="M 164.11612,621.15219 C 164.11612,621.15219 174.3727,626.15219 179.11612,626.15219 C 183.85954,626.15219 189.3727,621.15219 194.11612,621.15219 C 198.85954,621.15219 204.3727,626.15219 209.11612,626.15219 C 213.85954,626.15219 219.3727,621.15219 224.11612,621.15219 C 228.85954,621.15219 234.3727,626.15219 239.11612,626.15219 C 243.85954,626.15219 249.3727,621.15219 254.11612,621.15219 C 258.85954,621.15219 264.3727,626.15219 269.11612,626.15219 C 273.85954,626.15219 279.3727,621.15219 284.11612,621.15219 C 288.85954,621.15219 294.3727,626.15219 299.11612,626.15219 C 303.85954,626.15219 309.3727,621.15219 314.11612,621.15219 C 318.85954,621.15219 324.3727,626.15219 329.11612,626.15219 C 333.85954,626.15219 339.3727,621.15219 344.11612,621.15219 C 348.85954,621.15219 354.3727,626.15219 359.11612,626.15219 C 363.85954,626.15219 369.3727,621.15219 374.11612,621.15219 C 378.85954,621.15219 384.3727,626.15219 389.11612,626.15219 C 393.85954,626.15219 399.3727,621.15219 404.11612,621.15219 C 408.85954,621.15219 414.3727,626.15219 419.11612,626.15219 C 423.85954,626.15219 429.3727,621.15219 434.11612,621.15219 C 438.85954,621.15219 444.3727,626.15219 449.11612,626.15219 C 453.85954,626.15219 459.3727,621.15219 464.11612,621.15219 C 468.85954,621.15219 474.3727,626.15219 479.11612,626.15219 C 483.85954,626.15219 489.3727,621.15219 494.11612,621.15219 C 498.85954,621.15219 504.3727,626.15219 509.11612,626.15219 C 513.85954,626.15219 519.3727,621.15219 524.11612,621.15219 C 528.85954,621.15219 534.3727,626.15219 539.11612,626.15219 C 543.85954,626.15219 549.3727,621.15219 554.11612,621.15219 C 558.85954,621.15219 564.3727,626.15219 569.11612,626.15219 C 573.85954,626.15219 584.11612,621.15219 584.11612,621.15219"
         id="path3316"
         style="opacity:1;fill:none;fill-opacity:1;fill-rule:nonzero;stroke:#3c69a6;stroke-width:1;stroke-linecap:square;stroke-linejoin:miter;stroke-miterlimit:4;stroke-dasharray:none;stroke-dashoffset:0;stroke-opacity:1" />
    </g>
    <rect
       width="84"
       height="84"
       x="164.11612"
       y="405.65219"
       id="rect3277"
       style="fill:#dc171d;fill-opacity:1;fill-rule:nonzero;stroke:none;stroke-width:3;stroke-linecap:butt;stroke-linejoin:miter;stroke-miterlimit:4;stroke-dasharray:none;stroke-dashoffset:0;stroke-opacity:1" />
    <g
       id="g3247">
      <path
         d="M 374.11612,531.65219 L 246.11612,405.65219 L 502.11612,405.65219 L 374.11612,531.65219 z"
         id="path3245"
         style="opacity:1;fill:#012a87;fill-opacity:1;fill-rule:nonzero;stroke:none;stroke-width:3;stroke-linecap:butt;stroke-linejoin:miter;stroke-miterlimit:4;stroke-dasharray:none;stroke-dashoffset:0;stroke-opacity:1" />
      <path
         d="M 289.11612,411.65219 L 289.11612,424.65219 L 283.11612,430.65219 L 309.11612,430.65219 L 303.11612,424.65219 L 303.11612,411.65219 L 296.11612,405.65219 L 289.11612,411.65219 z"
         id="path2398"
         style="opacity:1;fill:#ffffff;fill-opacity:1;fill-rule:nonzero;stroke:none;stroke-width:3;stroke-linecap:butt;stroke-linejoin:miter;stroke-miterlimit:4;stroke-dasharray:none;stroke-dashoffset:0;stroke-opacity:1" />
      <path
         d="M 315.11612,411.65219 L 315.11612,424.65219 L 309.11612,430.65219 L 335.11612,430.65219 L 329.11612,424.65219 L 329.11612,411.65219 L 322.11612,405.65219 L 315.11612,411.65219 z"
         id="path3175"
         style="opacity:1;fill:#ffffff;fill-opacity:1;fill-rule:nonzero;stroke:none;stroke-width:3;stroke-linecap:butt;stroke-linejoin:miter;stroke-miterlimit:4;stroke-dasharray:none;stroke-dashoffset:0;stroke-opacity:1" />
      <path
         d="M 341.11612,411.65219 L 341.11612,424.65219 L 335.11612,430.65219 L 361.11612,430.65219 L 355.11612,424.65219 L 355.11612,411.65219 L 348.11612,405.65219 L 341.11612,411.65219 z"
         id="path3177"
         style="opacity:1;fill:#ffffff;fill-opacity:1;fill-rule:nonzero;stroke:none;stroke-width:3;stroke-linecap:butt;stroke-linejoin:miter;stroke-miterlimit:4;stroke-dasharray:none;stroke-dashoffset:0;stroke-opacity:1" />
      <path
         d="M 367.11612,411.65219 L 367.11612,424.65219 L 361.11612,430.65219 L 387.11612,430.65219 L 381.11612,424.65219 L 381.11612,411.65219 L 374.11612,405.65219 L 367.11612,411.65219 z"
         id="path3179"
         style="opacity:1;fill:#ffffff;fill-opacity:1;fill-rule:nonzero;stroke:none;stroke-width:3;stroke-linecap:butt;stroke-linejoin:miter;stroke-miterlimit:4;stroke-dasharray:none;stroke-dashoffset:0;stroke-opacity:1" />
      <path
         d="M 393.11612,411.65219 L 393.11612,424.65219 L 387.11612,430.65219 L 413.11612,430.65219 L 407.11612,424.65219 L 407.11612,411.65219 L 400.11612,405.65219 L 393.11612,411.65219 z"
         id="path3181"
         style="opacity:1;fill:#ffffff;fill-opacity:1;fill-rule:nonzero;stroke:none;stroke-width:3;stroke-linecap:butt;stroke-linejoin:miter;stroke-miterlimit:4;stroke-dasharray:none;stroke-dashoffset:0;stroke-opacity:1" />
      <path
         d="M 419.11612,411.65219 L 419.11612,424.65219 L 413.11612,430.65219 L 439.11612,430.65219 L 433.11612,424.65219 L 433.11612,411.65219 L 426.11612,405.65219 L 419.11612,411.65219 z"
         id="path3183"
         style="opacity:1;fill:#ffffff;fill-opacity:1;fill-rule:nonzero;stroke:none;stroke-width:3;stroke-linecap:butt;stroke-linejoin:miter;stroke-miterlimit:4;stroke-dasharray:none;stroke-dashoffset:0;stroke-opacity:1" />
      <path
         d="M 445.11612,411.65219 L 445.11612,424.65219 L 439.11612,430.65219 L 465.11612,430.65219 L 459.11612,424.65219 L 459.11612,411.65219 L 452.11612,405.65219 L 445.11612,411.65219 z"
         id="path3185"
         style="opacity:1;fill:#ffffff;fill-opacity:1;fill-rule:nonzero;stroke:none;stroke-width:3;stroke-linecap:butt;stroke-linejoin:miter;stroke-miterlimit:4;stroke-dasharray:none;stroke-dashoffset:0;stroke-opacity:1" />
      <path
         d="M 471.11612,411.65219 L 471.11612,424.65219 L 465.11612,430.65219 L 491.11612,430.65219 L 485.11612,424.65219 L 485.11612,411.65219 L 478.11612,405.65219 L 471.11612,411.65219 z"
         id="path3187"
         style="opacity:1;fill:#ffffff;fill-opacity:1;fill-rule:nonzero;stroke:none;stroke-width:3;stroke-linecap:butt;stroke-linejoin:miter;stroke-miterlimit:4;stroke-dasharray:none;stroke-dashoffset:0;stroke-opacity:1" />
      <path
         d="M 263.11612,411.65219 L 263.11612,424.65219 L 257.11612,430.65219 L 283.11612,430.65219 L 277.11612,424.65219 L 277.11612,411.65219 L 270.11612,405.65219 L 263.11612,411.65219 z"
         id="path3189"
         style="opacity:1;fill:#ffffff;fill-opacity:1;fill-rule:nonzero;stroke:none;stroke-width:3;stroke-linecap:butt;stroke-linejoin:miter;stroke-miterlimit:4;stroke-dasharray:none;stroke-dashoffset:0;stroke-opacity:1" />
      <path
         d="M 367.11612,511.65219 L 367.11612,524.65219 L 361.11612,530.65219 L 387.11612,530.65219 L 381.11612,524.65219 L 381.11612,511.65219 L 374.11612,505.65219 L 367.11612,511.65219 z"
         id="path3191"
         style="opacity:1;fill:#ffffff;fill-opacity:1;fill-rule:nonzero;stroke:none;stroke-width:3;stroke-linecap:butt;stroke-linejoin:miter;stroke-miterlimit:4;stroke-dasharray:none;stroke-dashoffset:0;stroke-opacity:1" />
      <path
         d="M 315.11612,461.65219 L 315.11612,474.65219 L 309.11612,480.65219 L 335.11612,480.65219 L 329.11612,474.65219 L 329.11612,461.65219 L 322.11612,455.65219 L 315.11612,461.65219 z"
         id="path3193"
         style="opacity:1;fill:#ffffff;fill-opacity:1;fill-rule:nonzero;stroke:none;stroke-width:3;stroke-linecap:butt;stroke-linejoin:miter;stroke-miterlimit:4;stroke-dasharray:none;stroke-dashoffset:0;stroke-opacity:1" />
      <path
         d="M 341.11612,461.65219 L 341.11612,474.65219 L 335.11612,480.65219 L 361.11612,480.65219 L 355.11612,474.65219 L 355.11612,461.65219 L 348.11612,455.65219 L 341.11612,461.65219 z"
         id="path3195"
         style="opacity:1;fill:#ffffff;fill-opacity:1;fill-rule:nonzero;stroke:none;stroke-width:3;stroke-linecap:butt;stroke-linejoin:miter;stroke-miterlimit:4;stroke-dasharray:none;stroke-dashoffset:0;stroke-opacity:1" />
      <path
         d="M 367.11612,461.65219 L 367.11612,474.65219 L 361.11612,480.65219 L 387.11612,480.65219 L 381.11612,474.65219 L 381.11612,461.65219 L 374.11612,455.65219 L 367.11612,461.65219 z"
         id="path3197"
         style="opacity:1;fill:#ffffff;fill-opacity:1;fill-rule:nonzero;stroke:none;stroke-width:3;stroke-linecap:butt;stroke-linejoin:miter;stroke-miterlimit:4;stroke-dasharray:none;stroke-dashoffset:0;stroke-opacity:1" />
      <path
         d="M 393.11612,461.65219 L 393.11612,474.65219 L 387.11612,480.65219 L 413.11612,480.65219 L 407.11612,474.65219 L 407.11612,461.65219 L 400.11612,455.65219 L 393.11612,461.65219 z"
         id="path3199"
         style="opacity:1;fill:#ffffff;fill-opacity:1;fill-rule:nonzero;stroke:none;stroke-width:3;stroke-linecap:butt;stroke-linejoin:miter;stroke-miterlimit:4;stroke-dasharray:none;stroke-dashoffset:0;stroke-opacity:1" />
      <path
         d="M 419.11612,461.65219 L 419.11612,474.65219 L 413.11612,480.65219 L 439.11612,480.65219 L 433.11612,474.65219 L 433.11612,461.65219 L 426.11612,455.65219 L 419.11612,461.65219 z"
         id="path3201"
         style="opacity:1;fill:#ffffff;fill-opacity:1;fill-rule:nonzero;stroke:none;stroke-width:3;stroke-linecap:butt;stroke-linejoin:miter;stroke-miterlimit:4;stroke-dasharray:none;stroke-dashoffset:0;stroke-opacity:1" />
      <path
         d="M 302.11612,436.65219 L 302.11612,449.65219 L 296.11612,455.65219 L 322.11612,455.65219 L 316.11612,449.65219 L 316.11612,436.65219 L 309.11612,430.65219 L 302.11612,436.65219 z"
         id="path3209"
         style="opacity:1;fill:#ffffff;fill-opacity:1;fill-rule:nonzero;stroke:none;stroke-width:3;stroke-linecap:butt;stroke-linejoin:miter;stroke-miterlimit:4;stroke-dasharray:none;stroke-dashoffset:0;stroke-opacity:1" />
      <path
         d="M 328.11612,436.65219 L 328.11612,449.65219 L 322.11612,455.65219 L 348.11612,455.65219 L 342.11612,449.65219 L 342.11612,436.65219 L 335.11612,430.65219 L 328.11612,436.65219 z"
         id="path3211"
         style="opacity:1;fill:#ffffff;fill-opacity:1;fill-rule:nonzero;stroke:none;stroke-width:3;stroke-linecap:butt;stroke-linejoin:miter;stroke-miterlimit:4;stroke-dasharray:none;stroke-dashoffset:0;stroke-opacity:1" />
      <path
         d="M 354.11612,436.65219 L 354.11612,449.65219 L 348.11612,455.65219 L 374.11612,455.65219 L 368.11612,449.65219 L 368.11612,436.65219 L 361.11612,430.65219 L 354.11612,436.65219 z"
         id="path3213"
         style="opacity:1;fill:#ffffff;fill-opacity:1;fill-rule:nonzero;stroke:none;stroke-width:3;stroke-linecap:butt;stroke-linejoin:miter;stroke-miterlimit:4;stroke-dasharray:none;stroke-dashoffset:0;stroke-opacity:1" />
      <path
         d="M 380.11612,436.65219 L 380.11612,449.65219 L 374.11612,455.65219 L 400.11612,455.65219 L 394.11612,449.65219 L 394.11612,436.65219 L 387.11612,430.65219 L 380.11612,436.65219 z"
         id="path3215"
         style="opacity:1;fill:#ffffff;fill-opacity:1;fill-rule:nonzero;stroke:none;stroke-width:3;stroke-linecap:butt;stroke-linejoin:miter;stroke-miterlimit:4;stroke-dasharray:none;stroke-dashoffset:0;stroke-opacity:1" />
      <path
         d="M 406.11612,436.65219 L 406.11612,449.65219 L 400.11612,455.65219 L 426.11612,455.65219 L 420.11612,449.65219 L 420.11612,436.65219 L 413.11612,430.65219 L 406.11612,436.65219 z"
         id="path3217"
         style="opacity:1;fill:#ffffff;fill-opacity:1;fill-rule:nonzero;stroke:none;stroke-width:3;stroke-linecap:butt;stroke-linejoin:miter;stroke-miterlimit:4;stroke-dasharray:none;stroke-dashoffset:0;stroke-opacity:1" />
      <path
         d="M 432.11612,436.65219 L 432.11612,449.65219 L 426.11612,455.65219 L 452.11612,455.65219 L 446.11612,449.65219 L 446.11612,436.65219 L 439.11612,430.65219 L 432.11612,436.65219 z"
         id="path3219"
         style="opacity:1;fill:#ffffff;fill-opacity:1;fill-rule:nonzero;stroke:none;stroke-width:3;stroke-linecap:butt;stroke-linejoin:miter;stroke-miterlimit:4;stroke-dasharray:none;stroke-dashoffset:0;stroke-opacity:1" />
      <path
         d="M 458.11612,436.65219 L 458.11612,449.65219 L 452.11612,455.65219 L 478.11612,455.65219 L 472.11612,449.65219 L 472.11612,436.65219 L 465.11612,430.65219 L 458.11612,436.65219 z"
         id="path3221"
         style="opacity:1;fill:#ffffff;fill-opacity:1;fill-rule:nonzero;stroke:none;stroke-width:3;stroke-linecap:butt;stroke-linejoin:miter;stroke-miterlimit:4;stroke-dasharray:none;stroke-dashoffset:0;stroke-opacity:1" />
      <path
         d="M 276.11612,436.65219 L 276.11612,449.65219 L 270.11612,455.65219 L 296.11612,455.65219 L 290.11612,449.65219 L 290.11612,436.65219 L 283.11612,430.65219 L 276.11612,436.65219 z"
         id="path3225"
         style="opacity:1;fill:#ffffff;fill-opacity:1;fill-rule:nonzero;stroke:none;stroke-width:3;stroke-linecap:butt;stroke-linejoin:miter;stroke-miterlimit:4;stroke-dasharray:none;stroke-dashoffset:0;stroke-opacity:1" />
      <path
         d="M 328.11612,486.65219 L 328.11612,499.65219 L 322.11612,505.65219 L 348.11612,505.65219 L 342.11612,499.65219 L 342.11612,486.65219 L 335.11612,480.65219 L 328.11612,486.65219 z"
         id="path3229"
         style="opacity:1;fill:#ffffff;fill-opacity:1;fill-rule:nonzero;stroke:none;stroke-width:3;stroke-linecap:butt;stroke-linejoin:miter;stroke-miterlimit:4;stroke-dasharray:none;stroke-dashoffset:0;stroke-opacity:1" />
      <path
         d="M 354.11612,486.65219 L 354.11612,499.65219 L 348.11612,505.65219 L 374.11612,505.65219 L 368.11612,499.65219 L 368.11612,486.65219 L 361.11612,480.65219 L 354.11612,486.65219 z"
         id="path3231"
         style="opacity:1;fill:#ffffff;fill-opacity:1;fill-rule:nonzero;stroke:none;stroke-width:3;stroke-linecap:butt;stroke-linejoin:miter;stroke-miterlimit:4;stroke-dasharray:none;stroke-dashoffset:0;stroke-opacity:1" />
      <path
         d="M 380.11612,486.65219 L 380.11612,499.65219 L 374.11612,505.65219 L 400.11612,505.65219 L 394.11612,499.65219 L 394.11612,486.65219 L 387.11612,480.65219 L 380.11612,486.65219 z"
         id="path3233"
         style="opacity:1;fill:#ffffff;fill-opacity:1;fill-rule:nonzero;stroke:none;stroke-width:3;stroke-linecap:butt;stroke-linejoin:miter;stroke-miterlimit:4;stroke-dasharray:none;stroke-dashoffset:0;stroke-opacity:1" />
      <path
         d="M 406.11612,486.65219 L 406.11612,499.65219 L 400.11612,505.65219 L 426.11612,505.65219 L 420.11612,499.65219 L 420.11612,486.65219 L 413.11612,480.65219 L 406.11612,486.65219 z"
         id="path3235"
         style="opacity:1;fill:#ffffff;fill-opacity:1;fill-rule:nonzero;stroke:none;stroke-width:3;stroke-linecap:butt;stroke-linejoin:miter;stroke-miterlimit:4;stroke-dasharray:none;stroke-dashoffset:0;stroke-opacity:1" />
    </g>
    <g
       id="g3412">
      <path
         d="M 205.11612,465.15219 C 191.11612,465.15219 180.63463,466.1991 180.61612,468.15219 C 180.59703,470.1665 188.11612,475.15219 205.11612,475.15219 C 222.11612,475.15219 229.63521,470.1665 229.61612,468.15219 C 229.59761,466.1991 219.11612,465.15219 205.11612,465.15219 z"
         id="path3342"
         style="fill:#808080;fill-opacity:1;fill-rule:nonzero;stroke:#333333;stroke-width:1;stroke-linecap:square;stroke-linejoin:miter;stroke-miterlimit:4;stroke-dasharray:none;stroke-dashoffset:0;stroke-opacity:1" />
      <path
         d="M 204.11612,464.65219 L 204.11612,465.65219 L 204.11612,469.77719 C 202.11527,470.23406 200.61612,472.01354 200.61612,474.15219 C 200.61612,476.63619 202.63212,478.65219 205.11612,478.65219 C 207.60012,478.65219 209.61612,476.63619 209.61612,474.15219 C 209.61612,472.01354 208.11697,470.23406 206.11612,469.77719 L 206.11612,464.65219 L 204.11612,464.65219 z"
         id="path3351"
         style="fill:#ffffff;fill-opacity:1;fill-rule:nonzero;stroke:#333333;stroke-width:1;stroke-linecap:square;stroke-linejoin:round;stroke-miterlimit:4;stroke-dasharray:none;stroke-dashoffset:0;stroke-opacity:1" />
      <path
         d="M 205.11612,424.65219 C 193.01918,424.65219 194.11612,432.65219 192.11612,445.65219 C 191.09203,452.30876 185.01983,463.04141 181.36612,467.30844 C 183.98107,465.89819 193.28559,465.15219 205.11612,465.15219 C 216.94665,465.15219 226.25117,465.89819 228.86612,467.30844 C 225.21241,463.04141 219.14021,452.30876 218.11612,445.65219 C 216.11612,432.65219 217.21306,424.65219 205.11612,424.65219 z"
         id="path3344"
         style="fill:#ffffff;fill-opacity:1;fill-rule:nonzero;stroke:#333333;stroke-width:1;stroke-linecap:square;stroke-linejoin:round;stroke-miterlimit:4;stroke-dasharray:none;stroke-dashoffset:0;stroke-opacity:1" />
      <rect
         width="4.3333344"
         height="7"
         x="199.11612"
         y="418.65219"
         id="rect3360"
         style="fill:#ffffff;fill-opacity:1;fill-rule:nonzero;stroke:#333333;stroke-width:1.00000024;stroke-linecap:square;stroke-linejoin:round;stroke-miterlimit:4;stroke-dasharray:none;stroke-dashoffset:0;stroke-opacity:1" />
      <rect
         width="4.3333344"
         height="7"
         x="-211.11612"
         y="418.65219"
         transform="scale(-1,1)"
         id="rect3398"
         style="fill:#ffffff;fill-opacity:1;fill-rule:nonzero;stroke:#333333;stroke-width:1.00000024;stroke-linecap:square;stroke-linejoin:round;stroke-miterlimit:4;stroke-dasharray:none;stroke-dashoffset:0;stroke-opacity:1" />
      <path
         d="M 194.11612,413.65219 L 194.11612,418.65219 L 203.11612,418.65219 L 203.11612,424.65219 L 207.11612,424.65219 L 207.11612,418.65219 L 216.11612,418.65219 L 216.11612,413.65219 L 194.11612,413.65219 z"
         id="path3356"
         style="fill:#ffffff;fill-opacity:1;fill-rule:nonzero;stroke:#333333;stroke-width:1;stroke-linecap:square;stroke-linejoin:round;stroke-miterlimit:4;stroke-dasharray:none;stroke-dashoffset:0;stroke-opacity:1" />
      <rect
         width="2.9999998"
         height="7"
         x="196.11612"
         y="412.65219"
         id="rect3358"
         style="fill:#ffffff;fill-opacity:1;fill-rule:nonzero;stroke:#808080;stroke-width:1.00000024;stroke-linecap:square;stroke-linejoin:round;stroke-miterlimit:4;stroke-dasharray:none;stroke-dashoffset:0;stroke-opacity:1" />
      <rect
         width="2.9999998"
         height="7"
         x="-214.11612"
         y="412.65219"
         transform="scale(-1,1)"
         id="rect3396"
         style="fill:#ffffff;fill-opacity:1;fill-rule:nonzero;stroke:#808080;stroke-width:1.00000024;stroke-linecap:square;stroke-linejoin:round;stroke-miterlimit:4;stroke-dasharray:none;stroke-dashoffset:0;stroke-opacity:1" />
    </g>
    <g
       id="g3794">
      <g
         id="g3513">
        <path
           d="M 179.75,158.375 L 206.5,141.375"
           transform="translate(164.11612,405.65219)"
           id="path3503"
           style="opacity:1;fill:#ffffff;fill-opacity:1;fill-rule:nonzero;stroke:#000000;stroke-width:0.5;stroke-linecap:square;stroke-linejoin:round;stroke-miterlimit:4;stroke-dasharray:none;stroke-dashoffset:0;stroke-opacity:1" />
        <path
           d="M 192.625,159 L 206.375,141.5"
           transform="translate(164.11612,405.65219)"
           id="path3505"
           style="opacity:1;fill:#ffffff;fill-opacity:1;fill-rule:nonzero;stroke:#000000;stroke-width:0.5;stroke-linecap:square;stroke-linejoin:round;stroke-miterlimit:4;stroke-dasharray:none;stroke-dashoffset:0;stroke-opacity:1" />
        <path
           d="M 226.5,141.125 L 202.5,158.875"
           transform="translate(164.11612,405.65219)"
           id="path3507"
           style="opacity:1;fill:#ffffff;fill-opacity:1;fill-rule:nonzero;stroke:#000000;stroke-width:0.5;stroke-linecap:square;stroke-linejoin:round;stroke-miterlimit:4;stroke-dasharray:none;stroke-dashoffset:0;stroke-opacity:1" />
        <path
           d="M 207.375,141.375 L 223.75,160"
           transform="translate(164.11612,405.65219)"
           id="path3509"
           style="opacity:1;fill:#ffffff;fill-opacity:1;fill-rule:nonzero;stroke:#000000;stroke-width:0.5;stroke-linecap:square;stroke-linejoin:round;stroke-miterlimit:4;stroke-dasharray:none;stroke-dashoffset:0;stroke-opacity:1" />
        <path
           d="M 227.875,140.875 L 260.25,159.375"
           transform="translate(164.11612,405.65219)"
           id="path3511"
           style="opacity:1;fill:#ffffff;fill-opacity:1;fill-rule:nonzero;stroke:#000000;stroke-width:0.5;stroke-linecap:square;stroke-linejoin:round;stroke-miterlimit:4;stroke-dasharray:none;stroke-dashoffset:0;stroke-opacity:1" />
      </g>
      <g
         id="g3789">
        <rect
           width="3.125"
           height="73.375"
           x="369.49112"
           y="547.52716"
           id="rect3442"
           style="fill:#b93800;fill-opacity:1;fill-rule:nonzero;stroke:#000000;stroke-width:0.5;stroke-linecap:square;stroke-linejoin:round;stroke-miterlimit:4;stroke-dasharray:none;stroke-dashoffset:0;stroke-opacity:1" />
        <rect
           width="2.625"
           height="75.875"
           x="389.86612"
           y="545.65216"
           id="rect3444"
           style="fill:#b93800;fill-opacity:1;fill-rule:nonzero;stroke:#000000;stroke-width:0.5;stroke-linecap:square;stroke-linejoin:round;stroke-miterlimit:4;stroke-dasharray:none;stroke-dashoffset:0;stroke-opacity:1" />
        <path
           d="M 362.61612,536.90216 L 378.74112,536.90216 L 375.49112,547.90216 L 366.86612,547.90216 L 362.61612,536.90216 z"
           id="rect3450"
           style="fill:#b93800;fill-opacity:1;fill-rule:nonzero;stroke:#000000;stroke-width:0.49999994;stroke-linecap:square;stroke-linejoin:round;stroke-miterlimit:4;stroke-dashoffset:0;stroke-opacity:1" />
      </g>
      <g
         id="g3472">
        <path
           d="M 383.20001,564.50574 C 368.51077,578.69754 370.02912,591.6042 375.03212,611.70764 C 381.91345,607.37028 397.57767,607.06942 411.11612,609.90219 L 415.72101,613.45612 L 411.11612,609.90219 C 408.79879,601.00067 404.7429,582.60239 424.36422,565.13074 L 383.20001,564.50574 z"
           id="path3470"
           style="opacity:1;fill:#ffffff;fill-opacity:1;fill-rule:nonzero;stroke:#000000;stroke-width:0.5;stroke-linecap:square;stroke-linejoin:round;stroke-miterlimit:4;stroke-dasharray:none;stroke-dashoffset:0;stroke-opacity:1" />
        <path
           d="M 183.375,158.5 C 168.68576,172.6918 169.497,187.89656 174.5,208 C 184.36382,202.99131 212.7359,204.65669 225,214.875 C 207.33214,203.05385 217.83199,168.32345 223.125,159.125 L 183.375,158.5 z"
           transform="translate(164.11612,405.65219)"
           id="path3468"
           style="opacity:1;fill:#ffffff;fill-opacity:1;fill-rule:nonzero;stroke:#000000;stroke-width:0.5;stroke-linecap:square;stroke-linejoin:round;stroke-miterlimit:4;stroke-dasharray:none;stroke-dashoffset:0;stroke-opacity:1" />
        <path
           d="M 124,182.5 L 183.25,158.5 L 192.25,158.625 C 181.96751,169.68904 169.81457,182.97739 163.25,198.375 C 155.63225,188.45411 134.8646,182.70835 124,182.5 z"
           transform="translate(164.11612,405.65219)"
           id="path3466"
           style="opacity:1;fill:#ffffff;fill-opacity:1;fill-rule:nonzero;stroke:#000000;stroke-width:0.5;stroke-linecap:square;stroke-linejoin:round;stroke-miterlimit:4;stroke-dasharray:none;stroke-dashoffset:0;stroke-opacity:1" />
      </g>
      <rect
         width="46.886917"
         height="1.6895736"
         x="-426.72458"
         y="554.46362"
         transform="matrix(-0.9997457,-2.2549306e-2,0,1,0,0)"
         id="rect3446"
         style="fill:#b93800;fill-opacity:1;fill-rule:nonzero;stroke:#000000;stroke-width:0.50006354;stroke-linecap:square;stroke-linejoin:round;stroke-miterlimit:4;stroke-dasharray:none;stroke-dashoffset:0;stroke-opacity:1" />
      <rect
         width="46.886917"
         height="1.6895736"
         x="-389.59012"
         y="555.55096"
         transform="matrix(-0.9997457,-2.2549307e-2,0,1,0,0)"
         id="rect3448"
         style="fill:#b93800;fill-opacity:1;fill-rule:nonzero;stroke:#000000;stroke-width:0.50006354;stroke-linecap:square;stroke-linejoin:round;stroke-miterlimit:4;stroke-dasharray:none;stroke-dashoffset:0;stroke-opacity:1" />
      <g
         id="g3489">
        <path
           d="M 151.07204,144.66522 C 191.77404,132.42988 179.87168,150.29491 206.375,141.875 L 206.375,152.875 C 173.86302,159.50052 190.36569,143.18685 153.375,152.375 C 154.35573,149.59124 158.89111,148.10618 162.5,146.25 C 159.32775,145.41853 155.73548,144.99963 151.07204,144.66522 z"
           transform="translate(164.11612,405.65219)"
           id="path3477"
           style="opacity:1;fill:#ffffff;fill-opacity:1;fill-rule:nonzero;stroke:#000000;stroke-width:0.5;stroke-linecap:square;stroke-linejoin:round;stroke-miterlimit:4;stroke-dasharray:none;stroke-dashoffset:0;stroke-opacity:1" />
        <path
           d="M 206.125,142.21875 C 204.85988,142.61384 203.69355,142.93779 202.59375,143.21875 L 198.91344,146.75944 L 195.4375,144.4375 C 192.5973,144.5985 190.48667,144.22712 188.5625,143.65625 L 196.51563,149.09375 L 190.53125,154.125 C 191.83601,154.23833 193.31448,154.27338 195.0625,154.1875 L 199.23002,150.27632 L 203.46875,153.15625 C 204.32314,153.00521 205.19366,152.84356 206.125,152.65625 L 206.125,151.15625 L 202.04687,148.16797 L 206.125,144.4375 L 206.125,142.21875 z"
           transform="translate(164.11612,405.65219)"
           id="path3486"
           style="fill:#dc171d;fill-opacity:1;fill-rule:nonzero;stroke:none;stroke-width:0.5;stroke-linecap:square;stroke-linejoin:round;stroke-miterlimit:4;stroke-dashoffset:0;stroke-opacity:1" />
      </g>
      <rect
         width="15"
         height="15"
         x="418.61612"
         y="581.15216"
         id="rect3493"
         style="fill:#ffffff;fill-opacity:1;fill-rule:nonzero;stroke:#000000;stroke-width:0.5;stroke-linecap:square;stroke-linejoin:round;stroke-miterlimit:4;stroke-dasharray:none;stroke-dashoffset:0;stroke-opacity:1" />
      <path
         d="M 427.49112,617.71469 L 422.86612,626.77719 C 422.86612,626.77719 427.08589,635.43835 430.80362,629.33969 C 432.64518,626.31875 427.49112,617.71469 427.49112,617.71469 z"
         id="path3426"
         style="fill:#b93800;fill-opacity:1;fill-rule:nonzero;stroke:#000000;stroke-width:0.5;stroke-linecap:square;stroke-linejoin:round;stroke-miterlimit:4;stroke-dasharray:none;stroke-dashoffset:0;stroke-opacity:1" />
      <path
         d="M 311.49112,612.52719 C 314.23521,612.57238 321.23322,617.57046 326.51355,622.31066 C 332.64853,627.81809 333.3777,632.75187 343.61612,632.90219 C 348.3718,632.97159 354.48602,630.42548 359.24112,630.52719 C 362.69543,630.60107 367.16101,632.28855 370.61584,632.33188 C 374.43649,632.37979 379.42107,630.73529 383.24112,630.65219 C 387.19572,630.56617 392.42203,631.98088 396.37434,631.82104 C 400.92579,631.63697 408.7949,628.97761 411.49112,629.27719 C 418.63577,630.07104 428.4185,634.02912 428.11612,617.77719 C 403.42651,618.25394 370.01836,634.35496 346.494,620.83339 C 321.61911,606.53556 303.34554,606.58084 311.49112,612.52719 z"
         id="path3424"
         style="fill:#b93800;fill-opacity:1;fill-rule:nonzero;stroke:#000000;stroke-width:0.5;stroke-linecap:square;stroke-linejoin:round;stroke-miterlimit:4;stroke-dasharray:none;stroke-dashoffset:0;stroke-opacity:1" />
      <path
         d="M 287.42862,585.58969 C 286.29584,585.71603 286.13321,587.62319 287.36612,588.52719 C 294.62571,593.85011 310.99112,607.02719 310.99112,607.02719 C 308.33637,607.42163 303.78185,611.81352 311.36612,612.02719 L 311.36612,609.65219 L 316.74112,609.65219 C 339.17128,628.80792 343.02764,629.69443 381.11612,628.65219 C 402.30376,628.07242 425.47179,627.38363 431.24112,616.15219 L 410.61612,616.15219 C 406.56492,618.11284 344.34764,626.54306 334.99112,607.15219 L 322.36612,607.15219 L 322.36612,609.15219 C 315.15938,608.85191 298.33404,593.68699 288.86612,586.15219 C 288.28725,585.69151 287.80621,585.54758 287.42862,585.58969 z"
         id="path3422"
         style="fill:#b93800;fill-opacity:1;fill-rule:nonzero;stroke:#000000;stroke-width:0.5;stroke-linecap:square;stroke-linejoin:round;stroke-miterlimit:4;stroke-dasharray:none;stroke-dashoffset:0;stroke-opacity:1" />
      <rect
         width="18"
         height="5.75"
         x="319.61612"
         y="601.90216"
         id="rect3428"
         style="fill:#b93800;fill-opacity:1;fill-rule:nonzero;stroke:#000000;stroke-width:0.5;stroke-linecap:square;stroke-linejoin:round;stroke-miterlimit:4;stroke-dasharray:none;stroke-dashoffset:0;stroke-opacity:1" />
      <rect
         width="3.125"
         height="26.125"
         x="433.61612"
         y="580.52716"
         id="rect3440"
         style="fill:#b93800;fill-opacity:1;fill-rule:nonzero;stroke:#000000;stroke-width:0.5;stroke-linecap:square;stroke-linejoin:round;stroke-miterlimit:4;stroke-dasharray:none;stroke-dashoffset:0;stroke-opacity:1" />
      <path
         d="M 419.86612,609.65219 C 418.4228,611.53301 413.03844,614.97987 410.61612,616.15219 L 436.11612,616.15219 L 436.11612,609.65219 L 438.36612,609.65219 L 438.36612,602.15219 L 419.86612,602.15219 L 419.86612,609.65219 z"
         id="path3432"
         style="fill:#b93800;fill-opacity:1;fill-rule:nonzero;stroke:#000000;stroke-width:0.5;stroke-linecap:square;stroke-linejoin:round;stroke-miterlimit:4;stroke-dasharray:none;stroke-dashoffset:0;stroke-opacity:1" />
      <path
         d="M 418.80362,581.33969 L 418.80362,584.05141 L 423.73956,589.01781 L 418.80362,593.95375 L 418.80362,595.96469 L 422.64268,595.96469 L 426.66456,591.94281 L 430.7169,595.96469 L 433.42862,595.96469 L 433.42862,592.82641 L 429.58956,589.01781 L 433.42862,585.17875 L 433.42862,581.33969 L 431.41768,581.33969 L 426.66456,586.09282 L 421.9419,581.33969 L 418.80362,581.33969 z"
         id="rect3495"
         style="fill:#dc171d;fill-opacity:1;fill-rule:nonzero;stroke:none;stroke-width:0.5;stroke-linecap:square;stroke-linejoin:round;stroke-miterlimit:4;stroke-dasharray:none;stroke-dashoffset:0;stroke-opacity:1" />
    </g>
  </g>
</svg>
